<?xml version="1.0" encoding="UTF-8"?>
<svg id="Layer_2" data-name="Layer 2" xmlns="http://www.w3.org/2000/svg" viewBox="0 0 144.25 144.25">
  <defs>
    <style>
      .cls-1 {
        fill: #c8b893;
      }

      .cls-2 {
        fill: none;
        stroke: #012133;
        stroke-linecap: round;
        stroke-linejoin: round;
        stroke-width: 1.8px;
      }
    </style>
  </defs>
  <g id="Layer_1-2" data-name="Layer 1">
    <g>
      <circle class="cls-1" cx="72.12" cy="72.12" r="72.12"/>
      <g>
        <g>
          <path class="cls-2" d="M105.36,114.62H38.89V46.08c7.09-6.43,11.06-10.03,18.15-16.46h48.31v85Z"/>
          <polyline class="cls-2" points="38.89 46.08 57.05 46.08 57.05 46.08 57.04 29.62"/>
        </g>
        <g>
          <path class="cls-2" d="M48.59,74.96c5.15,7.47,13.77,12.36,23.53,12.36s18.38-4.89,23.53-12.36c-5.15-7.47-13.77-12.36-23.53-12.36s-18.38,4.89-23.53,12.36Z"/>
          <path class="cls-2" d="M76.86,74.51c.01.15.02.3.02.45,0,2.62-2.13,4.75-4.75,4.75s-4.75-2.13-4.75-4.75,2.13-4.75,4.75-4.75c.18,0,.35,0,.53.03"/>
          <circle class="cls-2" cx="72.13" cy="74.96" r="10.95"/>
        </g>
      </g>
    </g>
  </g>
</svg>