<?xml version="1.0" encoding="UTF-8"?>
<svg id="Layer_2" data-name="Layer 2" xmlns="http://www.w3.org/2000/svg" viewBox="0 0 269.38 57.6">
  <defs>
    <style>
      .cls-1 {
        fill: #c8b893;
      }

      .cls-2 {
        fill: #152634;
      }

      .cls-3 {
        fill: #ab955e;
      }
    </style>
  </defs>
  <g id="Layer_1-2" data-name="Layer 1">
    <g>
      <g>
        <path class="cls-2" d="M106.88,9.12l-7.06,7.73c-1.65-2.11-4.95-3.1-7.46-3.1-2.84,0-6.93,1.32-6.93,4.82,0,4.09,4.95,4.95,10.1,6.54,5.61,1.72,11.42,4.43,11.42,12.88,0,10.63-8.52,15.39-18.03,15.39-6.01,0-11.29-1.72-15.72-5.88l7.33-8.06c2.18,2.77,5.48,4.42,8.98,4.42,2.84,0,7.13-1.25,7.13-4.89,0-4.09-4.95-5.15-10.17-6.87-5.75-1.85-11.75-4.49-11.75-12.68,0-9.97,8.72-15.19,17.83-15.19,5.22,0,10.3,1.39,14.33,4.89Z"/>
        <path class="cls-2" d="M123.39,5.42v46.75h-10.3V5.42h10.3Z"/>
        <path class="cls-2" d="M146.96,5.42l10.76,30.51h.13l10.83-30.51h15.52v46.75h-10.3V16.32h-.13l-12.28,35.86h-7.86l-11.82-35.86h-.13v35.86h-10.3V5.42h15.58Z"/>
        <path class="cls-2" d="M230.82,11.1l-7.92,6.47c-2.25-2.71-5.35-3.83-8.85-3.83-7.33,0-13.54,5.88-13.54,15.06,0,7.79,5.02,15.06,13.21,15.06,4.03,0,7.4-1.65,9.64-5.02l8.59,6.41c-3.7,5.42-10.5,8.12-16.91,8.12-14.66,0-25.23-9.64-25.23-24.57s10.5-24.57,25.23-24.57c6.14,0,12.28,2.38,15.78,6.87Z"/>
        <path class="cls-2" d="M269.38,36.13c0,10.17-7.99,16.84-17.83,16.84s-17.83-6.54-17.83-16.84,7.92-16.84,17.83-16.84,17.83,6.6,17.83,16.84ZM251.55,44.25c4.82,0,7.92-3.17,7.92-8.12s-3.1-8.12-7.99-8.12-7.86,3.37-7.86,8.12,3.04,8.12,7.92,8.12Z"/>
      </g>
      <g>
        <polygon class="cls-2" points="9.06 40.46 33.1 11.07 57.14 40.46 66.2 40.46 33.1 0 0 40.46 9.06 40.46"/>
        <polygon class="cls-3" points="18.11 44.95 33.16 26.57 48.2 44.95 57.26 44.95 33.16 15.49 9.05 44.95 18.11 44.95"/>
        <polygon class="cls-1" points="26.83 49.62 33.16 41.89 39.48 49.62 48.55 49.62 33.16 30.81 17.77 49.62 26.83 49.62"/>
        <polygon class="cls-2" points="33.15 45.6 27.9 52.02 27.9 57.6 38.41 57.6 38.41 52.02 33.15 45.6"/>
      </g>
    </g>
  </g>
</svg>