<?xml version="1.0" encoding="UTF-8"?>
<svg id="Layer_2" data-name="Layer 2" xmlns="http://www.w3.org/2000/svg" viewBox="0 0 254.45 57.6">
  <defs>
    <style>
      .cls-1 {
        fill: #9a2634;
      }

      .cls-2 {
        fill: #152634;
      }

      .cls-3 {
        fill: #ba736c;
      }
    </style>
  </defs>
  <g id="Layer_1-2" data-name="Layer 1">
    <g>
      <g>
        <path class="cls-2" d="M111.05,9.12l-7.07,7.73c-1.65-2.11-4.95-3.1-7.46-3.1-2.84,0-6.93,1.32-6.93,4.82,0,4.09,4.95,4.95,10.1,6.54,5.61,1.72,11.42,4.42,11.42,12.88,0,10.63-8.52,15.39-18.03,15.39-6.01,0-11.29-1.72-15.72-5.88l7.33-8.06c2.18,2.77,5.48,4.43,8.98,4.43,2.84,0,7.13-1.26,7.13-4.89,0-4.09-4.95-5.15-10.17-6.87-5.75-1.85-11.76-4.49-11.76-12.68,0-9.97,8.72-15.19,17.83-15.19,5.22,0,10.3,1.39,14.33,4.89Z"/>
        <path class="cls-2" d="M127.82,5.42v46.75h-10.3V5.42h10.3Z"/>
        <path class="cls-2" d="M171.52,19.89c0,2.72-.51,5.02-1.52,6.89-1.01,1.87-2.37,3.37-4.09,4.51-1.71,1.14-3.69,1.98-5.93,2.5-2.24.53-4.57.79-6.98.79h-5.6v17.59h-11.27V5.52h17.13c2.55,0,4.93.25,7.15.76,2.22.51,4.15,1.32,5.8,2.44,1.65,1.12,2.94,2.59,3.89,4.41.94,1.82,1.42,4.08,1.42,6.76ZM160.25,19.95c0-1.1-.22-2-.66-2.7-.44-.7-1.03-1.25-1.78-1.65-.75-.4-1.59-.66-2.54-.79-.95-.13-1.92-.2-2.93-.2h-4.94v11h4.74c1.06,0,2.07-.09,3.03-.26.97-.18,1.83-.48,2.6-.92.77-.44,1.37-1.02,1.81-1.75.44-.72.66-1.64.66-2.73Z"/>
        <path class="cls-2" d="M215.62,11.1l-7.92,6.47c-2.24-2.71-5.35-3.83-8.85-3.83-7.33,0-13.54,5.88-13.54,15.06,0,7.79,5.02,15.06,13.21,15.06,4.03,0,7.4-1.65,9.64-5.02l8.58,6.41c-3.7,5.41-10.5,8.12-16.9,8.12-14.66,0-25.23-9.64-25.23-24.57s10.5-24.56,25.23-24.56c6.14,0,12.28,2.38,15.78,6.87Z"/>
        <path class="cls-2" d="M254.45,36.13c0,10.17-7.99,16.84-17.83,16.84s-17.83-6.54-17.83-16.84,7.92-16.84,17.83-16.84,17.83,6.6,17.83,16.84ZM236.62,44.25c4.82,0,7.92-3.17,7.92-8.12s-3.1-8.12-7.99-8.12-7.86,3.37-7.86,8.12,3.04,8.12,7.92,8.12Z"/>
      </g>
      <g>
        <polygon class="cls-2" points="9.06 40.46 33.1 11.07 57.14 40.46 66.2 40.46 33.1 0 0 40.46 9.06 40.46"/>
        <polygon class="cls-1" points="18.11 44.95 33.16 26.57 48.2 44.95 57.26 44.95 33.16 15.49 9.05 44.95 18.11 44.95"/>
        <polygon class="cls-3" points="26.83 49.62 33.16 41.89 39.48 49.62 48.55 49.62 33.16 30.81 17.77 49.62 26.83 49.62"/>
        <polygon class="cls-2" points="33.15 45.6 27.9 52.02 27.9 57.6 38.41 57.6 38.41 52.02 33.15 45.6"/>
      </g>
    </g>
  </g>
</svg>